<?xml version="1.0" encoding="UTF-8" standalone="no"?>
<svg
   width="16"
   height="16"
   fill="currentColor"
   class="bi bi-journal-text"
   viewBox="0 0 16 16"
   version="1.1"
   id="svg8"
   sodipodi:docname="journal-text.svg"
   inkscape:version="1.2 (dc2aeda, 2022-05-15)"
   xmlns:inkscape="http://www.inkscape.org/namespaces/inkscape"
   xmlns:sodipodi="http://sodipodi.sourceforge.net/DTD/sodipodi-0.dtd"
   xmlns="http://www.w3.org/2000/svg"
   xmlns:svg="http://www.w3.org/2000/svg">
  <defs
     id="defs12" />
  <sodipodi:namedview
     id="namedview10"
     pagecolor="#ffffff"
     bordercolor="#000000"
     borderopacity="0.25"
     inkscape:showpageshadow="2"
     inkscape:pageopacity="0.0"
     inkscape:pagecheckerboard="0"
     inkscape:deskcolor="#d1d1d1"
     showgrid="false"
     inkscape:zoom="22.334488"
     inkscape:cx="7.7458683"
     inkscape:cy="6.4250411"
     inkscape:window-width="1423"
     inkscape:window-height="767"
     inkscape:window-x="0"
     inkscape:window-y="25"
     inkscape:window-maximized="0"
     inkscape:current-layer="svg8" />
  <path
     d="M 5,12.5 C 5,12.223858 5.2238576,12 5.5,12 h 2 c 0.6666664,0 0.6666664,1 0,1 h -2 C 5.2238576,13 5,12.776142 5,12.5 m 0,-2 C 5,10.223858 5.2238576,10 5.5,10 h 5 c 0.666666,0 0.666666,1 0,1 h -5 C 5.2238576,11 5,10.776142 5,10.5"
     id="path2"
     sodipodi:nodetypes="cssssccssssc" />
  <path
     d="M3 0h10a2 2 0 0 1 2 2v12a2 2 0 0 1-2 2H3a2 2 0 0 1-2-2v-1h1v1a1 1 0 0 0 1 1h10a1 1 0 0 0 1-1V2a1 1 0 0 0-1-1H3a1 1 0 0 0-1 1v1H1V2a2 2 0 0 1 2-2"
     id="path4" />
  <path
     d="M1 5v-.5a.5.5 0 0 1 1 0V5h.5a.5.5 0 0 1 0 1h-2a.5.5 0 0 1 0-1zm0 3v-.5a.5.5 0 0 1 1 0V8h.5a.5.5 0 0 1 0 1h-2a.5.5 0 0 1 0-1zm0 3v-.5a.5.5 0 0 1 1 0v.5h.5a.5.5 0 0 1 0 1h-2a.5.5 0 0 1 0-1z"
     id="path6" />
</svg>
