<?xml version="1.0" encoding="utf-8"?>
<!-- Generator: Adobe Illustrator 26.3.1, SVG Export Plug-In . SVG Version: 6.00 Build 0)  -->
<svg version="1.1" id="Camada_1" xmlns="http://www.w3.org/2000/svg" xmlns:xlink="http://www.w3.org/1999/xlink" x="0px" y="0px"
	 viewBox="0 0 16 16" style="enable-background:new 0 0 16 16;" xml:space="preserve">
<style type="text/css">
	.st0{fill:#444444;}
</style>
<path class="st0" d="M10.7,13.5c-0.1,0-0.4,0-0.6-0.2L6,7.8C6,7.7,5.8,7.7,5.8,7.8l0,5.1c0,0.3-0.2,0.5-0.5,0.5H3.7
	c-0.3,0-0.5-0.2-0.5-0.5l0-9.5c-0.1-0.2,0-0.4,0.1-0.5c0.1-0.2,0.4-0.4,0.7-0.4h1c0.1,0,0.4,0,0.6,0.2l4.4,5.9
	c0.1,0.1,0.2,0,0.2-0.1V3c0-0.3,0.2-0.5,0.5-0.5h1.5c0.3,0,0.5,0.2,0.5,0.5V13c0,0.3-0.2,0.5-0.5,0.5H10.7z"/>
</svg>
