<?xml version="1.0" encoding="utf-8"?>
<!-- Generator: Adobe Illustrator 26.3.1, SVG Export Plug-In . SVG Version: 6.00 Build 0)  -->
<svg version="1.1" id="Camada_1" xmlns="http://www.w3.org/2000/svg" xmlns:xlink="http://www.w3.org/1999/xlink" x="0px" y="0px"
	 viewBox="0 0 16 16" style="enable-background:new 0 0 16 16;" xml:space="preserve">
<style type="text/css">
	.st0{fill:#444444;}
</style>
<path class="st0" d="M11,2.8h0.8c0.2,0,0.4,0.2,0.4,0.4v9.7c0,0.2-0.2,0.4-0.4,0.4h-1.1c-0.1,0-0.2,0-0.3-0.1L5.4,5.5v7.2
	c0,0.2-0.2,0.4-0.4,0.4H4.2c-0.2,0-0.4-0.2-0.4-0.4V3.2C3.7,3,3.9,2.8,4.2,2.8H5c0.1,0,0.2,0,0.3,0.1l5.3,7.5V3.2
	C10.6,3,10.8,2.8,11,2.8z"/>
</svg>
