
<svg xmlns="http://www.w3.org/2000/svg" version="1.1" xmlns:xlink="http://www.w3.org/1999/xlink" preserveAspectRatio="none" x="0px" y="0px" width="16px" height="16px" viewBox="0 0 16 16">
<defs>
<g id="Layer0_0_FILL">
<path fill="#000000" stroke="none" d="
M 3.1 13.1
Q 2.9 13.1 2.75 13.25 2.6 13.4 2.6 13.55 2.6 13.75 2.75 13.9 2.9 14.05 3.1 14.05
L 12.9 14.05
Q 13.1 14.05 13.25 13.9 13.4 13.75 13.4 13.55 13.4 13.4 13.25 13.25 13.1 13.1 12.9 13.1
L 3.1 13.1
M 13.25 2.2
Q 13.1 2.05 12.9 2.05
L 3.1 2.05
Q 2.9 2.05 2.75 2.2 2.6 2.3 2.6 2.5 2.6 2.7 2.75 2.85 2.9 2.95 3.1 2.95
L 12.9 2.95
Q 13.1 2.95 13.25 2.85 13.4 2.7 13.4 2.5 13.4 2.3 13.25 2.2
M 10.3 5.9
Q 10.3 5.7 10.2 5.55
L 8.35 3.7
Q 8.2 3.55 8 3.55 7.8 3.55 7.7 3.7
L 5.85 5.55
Q 5.7 5.7 5.7 5.9 5.7 6.05 5.85 6.2 6 6.35 6.15 6.35 6.35 6.35 6.5 6.2
L 7.55 5.15 7.55 10.9 6.5 9.85
Q 6.35 9.75 6.15 9.75 6 9.75 5.85 9.85 5.7 10 5.7 10.2 5.7 10.4 5.85 10.5
L 7.7 12.35
Q 7.8 12.5 8 12.5 8.2 12.5 8.35 12.35
L 10.2 10.5
Q 10.3 10.4 10.3 10.2 10.3 10 10.2 9.85 10.05 9.75 9.85 9.75 9.65 9.75 9.55 9.85
L 8.5 10.9 8.5 5.15 9.55 6.2
Q 9.65 6.35 9.85 6.35 10.05 6.35 10.2 6.2 10.3 6.05 10.3 5.9 Z"/>
</g>
</defs>

<g transform="matrix( 1, 0, 0, 1, 0,0) ">
<use xlink:href="#Layer0_0_FILL"/>
</g>
</svg>
