<svg class="svg-icon" style="width: 1em; height: 1em;vertical-align: middle;fill: currentColor;overflow: hidden;" viewBox="0 0 1024 1024" version="1.1" xmlns="http://www.w3.org/2000/svg"><path d="M746.24 200 329.728 871.488c-10.688 18.304-22.656 27.52-35.968 27.52-7.68 0-15.36-2.944-22.976-8.768-7.68-5.824-11.52-13.44-11.52-22.72 0-6.976 3.328-15.488 9.984-25.472l419.008-676.992c7.296-12.288 13.76-21.568 19.264-27.776S720.896 128 731.264 128c9.984 0 18.048 2.944 24.256 8.768C761.6 142.592 764.736 150.336 764.736 160 764.736 166.976 758.592 180.288 746.24 200zM320 192c35.264 0 64 28.736 64 64l0 128c0 35.264-28.736 64-64 64S256 419.264 256 384L256 256C256 220.736 284.736 192 320 192M320 128C249.344 128 192 185.344 192 256l0 128c0 70.656 57.344 128 128 128s128-57.344 128-128L448 256C448 185.344 390.656 128 320 128L320 128zM704 576c35.328 0 64 28.672 64 64l0 128c0 35.328-28.672 64-64 64s-64-28.672-64-64l0-128C640 604.672 668.672 576 704 576M704 512c-70.656 0-128 57.344-128 128l0 128c0 70.656 57.344 128 128 128s128-57.344 128-128l0-128C832 569.344 774.656 512 704 512L704 512z"  /></svg>