
<svg xmlns="http://www.w3.org/2000/svg" version="1.1" xmlns:xlink="http://www.w3.org/1999/xlink" preserveAspectRatio="none" x="0px" y="0px" width="16px" height="16px" viewBox="0 0 16 16">
<defs>
<g id="Layer0_0_FILL">
<path fill="#000000" stroke="none" d="
M 3.5 13.25
Q 3.5 14.25 4.5 14.25
L 11.5 14.25
Q 12.5 14.25 12.5 13.25 12.5 12.25 11.5 12.25
L 4.5 12.25
Q 3.5 12.25 3.5 13.25
M 11.5 6.25
Q 12.5 6.25 12.5 5.25 12.5 4.25 11.5 4.25
L 9 4.25 9 1.75
Q 9 0.75 8 0.75 7 0.75 7 1.75
L 7 4.25 4.5 4.25
Q 3.5 4.25 3.5 5.25 3.5 6.25 4.5 6.25
L 7 6.25 7 8.75
Q 7 9.75 8 9.75 9 9.75 9 8.75
L 9 6.25 11.5 6.25 Z"/>
</g>
</defs>

<g transform="matrix( 1, 0, 0, 1, 0,0) ">
<use xlink:href="#Layer0_0_FILL"/>
</g>
</svg>
