<?xml version="1.0" encoding="utf-8"?>
<!-- Generator: Adobe Illustrator 26.3.1, SVG Export Plug-In . SVG Version: 6.00 Build 0)  -->
<svg version="1.1" id="Camada_1" xmlns="http://www.w3.org/2000/svg" xmlns:xlink="http://www.w3.org/1999/xlink" x="0px" y="0px"
	 viewBox="0 0 16 16" style="enable-background:new 0 0 16 16;" xml:space="preserve">
<style type="text/css">
	.st0{fill:#444444;}
</style>
<path class="st0" d="M4.3,9.4c0-0.2,0.1-0.3,0.4-0.3h0.7c0.2,0,0.4,0.1,0.4,0.3C5.8,10.4,6.7,11,8.1,11c1.3,0,2.2-0.5,2.2-1.4
	c0-1.1-1.2-1.4-2.5-1.9C6.3,7.3,4.5,6.8,4.5,5c0-1.6,1.5-2.7,3.5-2.7c1.9,0,3.3,1.1,3.4,2.6c0,0.2-0.1,0.3-0.4,0.3h-0.7
	c-0.2,0-0.3-0.1-0.4-0.3C9.9,4.1,9.2,3.7,8.1,3.7C6.8,3.7,6,4.2,6,5c0,0.9,0.9,1.2,2.2,1.6c1.6,0.5,3.5,1.1,3.5,3.1
	c0,1.6-1.5,2.7-3.6,2.7C5.9,12.3,4.3,11.2,4.3,9.4z"/>
<rect x="3" y="12.9" class="st0" width="9.9" height="0.8"/>
</svg>
